<svg xmlns="http://www.w3.org/2000/svg" viewBox="0 0 512 512"><defs><style>.cls-2{fill:#444a54}</style></defs><g id="Layer_2" data-name="Layer 2"><g id="Layer_1-2" data-name="Layer 1"><path fill="none" opacity=".25" d="M0 0h512v512H0z"/><path class="cls-2" d="M137.32 98v18.9H114v76.05H94.85v-76.07H71.47V98zm27.28 0v38h31.75V98h19v95h-19v-38.12H164.6v38.05h-19V98zm119.81-.26v19h-38.17v19.14h28.63v19h-28.63v19.14h38.17v19h-57.25V97.74zM144 246.88a34.14 34.14 0 017.3 4.83 30 30 0 010 42.18 28.27 28.27 0 01-21 8.84H95.06v-95h26.5a25.59 25.59 0 0118.85 7.89 24.93 24.93 0 017.59 18.13c0 4.55-2.24 10.01-4 13.13zm-22.45-20.56h-7.48v17.38c1.69-.08 4.07-.23 7.13-.47 4.52-.51 8.36-3.89 8.36-8.72a8.17 8.17 0 00-8-8.19zm19.8 46.48a11.85 11.85 0 00-11-11.66c-5.65-.31-10.54-.06-16.26-.06v23h16.26a11.13 11.13 0 0011.01-11.28zm45.95-65.03v76h38.18v19h-57.26v-95zm98.08 57.43v-57.43h19.21v57.49A38.45 38.45 0 01239 292.42a37 37 0 01-11.26-27.16v-57.49H247v57.43a19.2 19.2 0 0038.4 0zm88.25-57.67v19h-38.17v19.17h28.62v19h-28.62v19.15h38.17v19h-57.26v-95.32zM241.08 319l43.35 96.9h-20.68l-6.42-14.43h-32.51l-6.42 14.43h-20.62zm8.71 65.63l-8.66-20.09-8.77 20.09zm42.89-63.7h31c10.58 0 19.13 4 24.86 9.66s9.19 11.05 9.19 21.56v2.47a30.73 30.73 0 01-6 18.09c-3.33 4.67-6 6.65-11.37 8.77l22.09 34.4H339.1l-27.28-42v42h-19.08zM338 352.74a12.83 12.83 0 00-3.77-9.13c-2.48-2.41-7.18-3.77-11.78-3.77h-10.68v26.21h7.36v.06h6.36c6.96 0 12.51-6.11 12.51-13.37zm51.64-31.81v42l24.33-42h22l-28.1 48.24 32.63 46.71h-23.2l-27.69-39.82v39.82h-19v-94.95zm-293.12-2.24v97.19h19.09v-39.34l4.72 6.51 11.56-15.87-35.37-48.49z"/><path fill="#7481bf" d="M189.53 350.38v-31.69l-46.47 63.8-8.66-11.87-11.57 15.87 20.23 27.86 25.69-35.47-.01-.01 20.79-28.49z"/><path class="cls-2" d="M170.45 383.29v32.59h19.08v-58.64l-19.08 26.05z"/><path class="cls-2" d="M492 20v472H20V20h472m20-20H0v512h512V0z"/></g></g></svg>