<svg xmlns="http://www.w3.org/2000/svg" viewBox="0 0 512 512"><defs><style>.cls-1{fill:none;opacity:0.25;}.cls-2{fill:#444a54;}.cls-3{fill:#7481bf;}</style></defs><g id="Layer_2" data-name="Layer 2"><g id="Layer_1-2" data-name="Layer 1"><rect class="cls-1" width="512" height="512"/><path class="cls-2" d="M137.32,98v18.9H114v76.05H94.85V116.88H71.47V98Z"/><path class="cls-2" d="M164.6,98v38h31.75V98h19v95h-19V154.88H164.6v38.05h-19V98Z"/><path class="cls-2" d="M284.41,97.74v19H246.24v19.14h28.63v19H246.24v19.14h38.17v19H227.16V97.74Z"/><path class="cls-2" d="M144,246.88a34.14,34.14,0,0,1,7.3,4.83,30,30,0,0,1,0,42.18,28.27,28.27,0,0,1-21,8.84H95.06v-95h26.5a25.59,25.59,0,0,1,18.85,7.89A24.93,24.93,0,0,1,148,233.75C148,238.3,145.76,243.76,144,246.88Zm-22.45-20.56h-7.48V243.7c1.69-.08,4.07-.23,7.13-.47,4.52-.51,8.36-3.89,8.36-8.72A8.17,8.17,0,0,0,121.56,226.32Zm19.8,46.48a11.85,11.85,0,0,0-11-11.66c-5.65-.31-10.54-.06-16.26-.06v23h16.26A11.13,11.13,0,0,0,141.36,272.8Z"/><path class="cls-2" d="M187.3,207.77v76h38.18v19H168.22v-95Z"/><path class="cls-2" d="M285.38,265.2V207.77h19.21v57.49A38.45,38.45,0,0,1,239,292.42a37,37,0,0,1-11.26-27.16V207.77H247V265.2a19.2,19.2,0,0,0,38.4,0Z"/><path class="cls-2" d="M373.63,207.53v19H335.46V245.7h28.62v19H335.46v19.15h38.17v19H316.37V207.53Z"/><path class="cls-2" d="M241.08,319l43.35,96.9H263.75l-6.42-14.43H224.82l-6.42,14.43H197.78Zm8.71,65.63-8.66-20.09-8.77,20.09Z"/><path class="cls-2" d="M292.68,320.93h31c10.58,0,19.13,4,24.86,9.66s9.19,11.05,9.19,21.56v2.47a30.73,30.73,0,0,1-6,18.09c-3.33,4.67-6,6.65-11.37,8.77l22.09,34.4H339.1l-27.28-42v42H292.74ZM338,352.74a12.83,12.83,0,0,0-3.77-9.13c-2.48-2.41-7.18-3.77-11.78-3.77H311.77v26.21h7.36v.06h6.36C332.45,366.11,338,360,338,352.74Z"/><path class="cls-2" d="M389.64,320.93v42l24.33-42h22l-28.1,48.24,32.63,46.71h-23.2l-27.69-39.82v39.82h-19V320.93Z"/><polygon class="cls-2" points="96.52 318.69 96.52 415.88 115.61 415.88 115.61 376.54 120.33 383.05 131.89 367.18 96.52 318.69"/><polygon class="cls-3" points="189.53 350.38 189.53 318.69 143.06 382.49 134.4 370.62 122.83 386.49 143.06 414.35 168.75 378.88 168.74 378.87 189.53 350.38"/><polygon class="cls-2" points="170.45 383.29 170.45 415.88 189.53 415.88 189.53 357.24 170.45 383.29"/><path class="cls-2" d="M492,20V492H20V20H492M512,0H0V512H512V0Z"/></g></g></svg>